<?xml version="1.0" standalone="no"?>
<!DOCTYPE svg PUBLIC "-//W3C//DTD SVG 20010904//EN"
 "http://www.w3.org/TR/2001/REC-SVG-20010904/DTD/svg10.dtd">
<svg version="1.0" xmlns="http://www.w3.org/2000/svg"
 width="611.000000pt" height="611.000000pt" viewBox="0 0 611.000000 611.000000"
 preserveAspectRatio="xMidYMid meet">
<metadata>
Created by potrace 1.11, written by Peter Selinger 2001-2013
</metadata>
<g transform="translate(0.000000,611.000000) scale(0.100000,-0.100000)"
fill="#000000" stroke="none">
<path d="M2265 5773 c-3 -8 -5 -53 -5 -99 0 -80 -1 -84 -22 -85 -13 0 -139 -1
-281 -1 -298 -1 -274 9 -271 -109 2 -56 0 -71 -13 -76 -9 -4 -183 -7 -387 -7
l-371 -1 -3 -88 c-2 -56 1 -94 9 -103 7 -9 31 -13 67 -12 32 0 72 0 89 0 l33
-2 2 -187 3 -188 93 -3 92 -3 0 -89 0 -88 -86 0 c-47 0 -90 -4 -95 -9 -5 -5
-10 -177 -11 -383 l-3 -375 -95 -5 -95 -5 -3 -97 -3 -97 98 -3 98 -3 5 -95 5
-95 185 -2 185 -2 0 -88 0 -88 -81 -1 c-45 -1 -87 -5 -93 -8 -7 -5 -11 -42
-11 -96 l0 -89 -92 -3 -93 -3 -3 -80 c-5 -124 -7 -120 90 -120 46 1 89 4 96 9
8 5 12 37 12 97 l0 89 188 0 189 0 -1 -72 c-1 -40 1 -84 4 -97 l6 -25 185 0
184 -1 2 -70 c4 -114 7 -110 -91 -108 -52 1 -88 -2 -92 -9 -9 -14 -9 -1132 0
-1147 5 -7 40 -11 95 -11 l89 0 0 -376 c0 -306 2 -378 13 -385 8 -5 41 -8 74
-8 118 3 105 25 105 -183 0 -101 4 -188 8 -194 5 -8 67 -11 194 -12 216 0 198
-11 198 121 l0 77 45 1 c25 0 64 1 88 1 l42 1 1 -90 c1 -50 4 -95 8 -101 8
-13 374 -13 382 0 3 5 6 44 6 86 -1 112 -5 107 88 106 45 -1 83 -3 85 -6 2 -2
5 -43 6 -91 1 -49 6 -91 13 -96 6 -5 300 -8 676 -7 l665 1 5 290 5 290 370 1
c204 1 375 2 381 3 8 1 11 57 12 179 0 97 1 182 1 189 1 9 31 13 99 15 l97 3
1 377 c1 207 -2 382 -7 389 -5 9 -35 12 -98 11 -67 -2 -91 1 -92 10 0 7 -1
264 -1 571 -1 345 -5 560 -11 564 -5 3 -47 5 -93 5 -58 -1 -84 3 -85 11 -1 7
-1 43 -1 81 1 101 -1 103 -102 102 -46 -1 -88 -5 -93 -9 -7 -8 -9 -30 -12
-146 l-1 -39 -185 1 c-151 2 -186 -1 -190 -12 -8 -20 -7 -752 1 -760 3 -3 45
-6 92 -6 l87 0 3 -476 2 -476 -87 1 -88 2 -3 279 c-1 156 -6 283 -12 289 -5 5
-46 9 -92 10 l-83 1 -3 180 c-1 99 -6 183 -11 188 -5 5 -47 8 -94 8 -100 -1
-96 -5 -94 107 1 47 -2 77 -10 84 -7 6 -82 8 -187 6 -97 -2 -177 -1 -177 2 -1
3 -3 87 -4 188 l-2 182 186 0 186 0 0 -90 c1 -49 4 -92 8 -96 10 -11 177 -8
188 3 5 5 9 50 7 99 l-3 89 -95 5 -95 5 -1 88 c-1 48 -4 90 -7 93 -3 4 -46 7
-94 8 l-88 1 -1 88 -2 87 89 0 c59 0 90 4 96 13 4 6 8 46 9 87 0 41 2 81 3 88
1 9 47 12 191 12 l191 0 -3 98 -3 97 -184 2 c-100 1 -186 5 -189 8 -4 4 -7
130 -7 281 -1 239 1 274 15 275 8 1 44 3 80 4 36 1 73 3 83 4 15 1 17 12 17
89 0 48 -4 92 -8 99 -5 8 -41 13 -97 15 l-90 3 -2 70 c-2 108 -4 105 87 105
43 0 85 3 94 6 14 5 16 32 16 190 0 140 3 184 13 185 6 0 39 1 72 0 109 -1
105 -5 105 104 0 90 -1 95 -22 99 -13 3 -219 5 -458 5 -239 -1 -445 0 -457 0
-22 1 -23 5 -23 91 0 108 16 100 -198 97 -84 -1 -161 1 -171 4 -15 6 -17 19
-16 93 2 54 -2 89 -9 94 -6 4 -266 7 -578 8 -481 1 -568 -1 -573 -13z"/>
</g>
</svg>
